<svg width="1058" height="964" viewBox="0 0 1058 964" fill="none" xmlns="http://www.w3.org/2000/svg">
<g clip-path="url(#clip0_83_2)">
<path d="M431.32 789.56C430.745 788.987 430.169 788.413 429.594 787.839L429.587 787.833L429.581 787.826C428.192 786.452 426.588 784.81 424.706 782.883C424.486 782.658 424.262 782.428 424.034 782.195C423.808 781.963 423.596 781.744 423.397 781.539C423.34 781.305 423.278 781.126 423.239 781.016C423.027 780.427 422.733 779.94 422.572 779.682C421.892 778.594 420.572 776.956 418.878 774.981L418.869 774.97C395.286 747.619 371.701 720.268 348.1 692.916L431.32 789.56ZM431.32 789.56C427.838 782.949 424.355 776.337 420.873 769.725C407.142 743.654 393.408 717.577 379.681 691.501L379.676 691.491L379.671 691.481C378.569 689.363 377.886 686.729 378.772 683.992C379.606 681.418 381.523 679.705 383.527 678.577C383.428 678.345 383.314 678.087 383.181 677.803L383.179 677.798C382.428 676.185 381.797 675.036 381.297 674.275C381.162 674.068 381.047 673.908 380.955 673.787C380.739 673.79 380.401 673.821 379.916 673.927L379.906 673.929L379.896 673.931C363.94 677.355 347.891 681.954 332.314 687.154C333.008 687.766 333.507 688.099 333.81 688.254C333.854 688.269 334.13 688.365 334.769 688.453C335.471 688.549 336.415 688.611 337.635 688.618L337.645 688.619L337.656 688.619C341.688 688.662 345.483 689.878 348.1 692.915L431.32 789.56ZM454.625 810.154C454.732 809.905 454.817 809.657 454.882 809.416C455.367 811.203 455.823 812.857 456.282 814.493C455.371 813.581 454.459 812.669 453.547 811.757C454.06 811.238 454.404 810.667 454.625 810.154ZM420.852 778.661C420.851 778.66 420.845 778.657 420.834 778.649C420.846 778.657 420.852 778.661 420.852 778.661ZM380.715 673.504C380.715 673.504 380.718 673.507 380.724 673.513C380.718 673.507 380.715 673.504 380.715 673.504ZM421.696 786.509C421.583 786.394 421.47 786.278 421.356 786.161C421.191 785.992 421.024 785.821 420.855 785.648C421.263 785.267 421.593 784.821 421.838 784.336L423.543 782.682C423.544 782.716 423.544 782.751 423.543 782.786C423.533 783.657 423.234 785.331 421.696 786.509Z" stroke="#FF5C00" stroke-width="9.3735"/>
<path d="M516.491 857.227L516.491 857.226C523.512 834.026 525.23 807.91 526.16 782.69C526.86 763.539 525.709 743.624 520.35 725.428C515.856 710.203 509.296 696.69 501.237 687.095C493.32 677.67 483.687 671.5 473.939 669.136H473.937L473.42 669.018C465.798 667.272 459.667 668.453 454.987 671.493C450.247 674.571 446.476 679.898 444.319 687.356L516.491 857.227ZM516.491 857.227C515.396 860.85 514.233 863.495 513.089 865.313C511.932 867.153 510.986 867.846 510.443 868.085C509.971 868.293 508.171 868.783 504.162 864.491C502.861 863.097 501.614 861.637 500.416 860.12C501.1 860.166 501.841 860.089 502.625 859.825C504.157 859.308 505.133 858.264 505.708 857.401C506.271 856.554 506.609 855.647 506.83 854.875L506.835 854.858L506.84 854.841C507.636 851.984 507.727 848.505 507.325 844.65L507.324 844.642L507.323 844.635L507.32 844.61C501.983 794.965 496.645 745.322 491.324 695.661L490.876 691.474H490.69C489.008 682.656 485 675.591 477.23 673.61L477.223 673.608C475.245 673.107 473.107 673.084 471.044 673.903C468.979 674.722 467.443 676.205 466.354 677.92C464.155 681.382 463.863 685.563 464.532 689.793C468.349 714.134 472.171 738.475 475.993 762.816L475.994 762.826C479.817 787.171 483.639 811.516 487.457 835.86L487.458 835.866C487.718 837.513 488.013 839.093 488.343 840.605C485.58 835.182 483.008 829.554 480.448 823.951C479.704 822.324 478.961 820.698 478.215 819.081L478.215 819.08M516.491 857.227L478.215 819.08M478.215 819.08C467.667 796.225 457.128 772.673 450.242 749.271L450.242 749.271M478.215 819.08L450.242 749.271M450.242 749.271C444.125 728.484 438.536 707.414 444.318 687.359L450.242 749.271Z" stroke="#FF5C00" stroke-width="9.3735"/>
<path d="M582.755 794.046L578.349 785.248L578.332 785.215L577.719 783.989L577.862 782.626C580.53 757.24 582.127 732.028 582.869 706.486C582.837 705.253 582.925 704.086 583.143 702.969C584.111 698.001 587.387 694.457 592.072 692.395L592.085 692.389L592.097 692.384C592.275 692.307 592.422 692.235 592.54 692.171C592.949 690.846 593.228 689.768 593.406 689C593.422 688.935 593.436 688.872 593.45 688.811C577.733 688.722 561.763 687.863 546.114 686.194C546.11 686.319 546.105 686.452 546.098 686.6C546.145 687.205 546.156 687.823 546.137 688.43L546.137 688.456L546.135 688.483C546.1 689.331 546.042 690.41 545.864 691.545L582.755 794.046ZM582.755 794.046C576.955 807.594 571.493 821.334 566.334 835.301L566.324 835.33L566.313 835.359C565.075 838.854 564.461 840.611 563.254 844.145L563.249 844.161L563.244 844.177C563.24 844.189 563.227 844.223 563.188 844.283C563.147 844.346 563.069 844.449 562.928 844.587L562.909 844.607L562.889 844.626L558.961 848.554C561.229 801.059 558.242 753.842 553.432 706.811C552.935 701.746 550.834 697.455 546.807 694.525C546.339 694.179 545.983 693.895 545.722 693.672C545.714 693.423 545.714 693.101 545.73 692.697L545.731 692.675L545.732 692.653C545.739 692.417 545.78 692.082 545.864 691.546L582.755 794.046ZM593.873 686.407C593.873 686.407 593.873 686.412 593.873 686.422C593.873 686.412 593.873 686.407 593.873 686.407ZM588.295 781.391C598.638 755.69 609.664 730.454 622.705 706.166C623.191 705.263 623.591 704.325 623.9 703.352C624.637 701.069 624.628 698.471 623.141 696.105C622.002 694.292 620.288 693.102 618.547 692.286C618.589 692.134 618.633 691.972 618.683 691.785C619.075 690.406 619.411 689.367 619.691 688.627C619.707 688.584 619.723 688.543 619.738 688.504C629.1 688.193 634.613 687.914 642.736 687.335C642.515 687.825 642.318 688.254 642.143 688.624C641.955 689.021 641.803 689.329 641.684 689.559C641.649 689.627 641.619 689.683 641.594 689.728C641.519 689.779 641.392 689.855 641.2 689.948L641.115 689.989L641.032 690.034C638.25 691.521 635.973 693 634.538 694.435L634.523 694.449L634.509 694.465C633.142 695.856 631.273 698.624 629.057 702.246L629.034 702.283L629.012 702.32C613.86 728.142 600.377 754.402 588.295 781.391ZM648.027 686.954C648.022 686.954 648.01 686.954 647.993 686.953C648.011 686.953 648.022 686.953 648.028 686.953C648.027 686.953 648.027 686.954 648.027 686.954ZM546.229 684.505C546.229 684.505 546.229 684.507 546.228 684.509C546.229 684.507 546.229 684.505 546.229 684.505Z" stroke="#FF5C00" stroke-width="9.3735"/>
<path d="M725.798 677.49C720.895 678.228 715.993 678.942 711.089 679.633C713.176 680.671 714.287 682.583 714.576 684.543L725.798 677.49ZM725.798 677.49C723.516 680.812 721.469 683.634 718.353 687.826C718.057 688.218 717.826 688.516 717.645 688.74C717.448 688.983 717.375 689.058 717.387 689.045L717.376 689.057L717.365 689.068C717.109 689.327 716.136 689.982 713.774 690.699M725.798 677.49L713.774 690.699M713.774 690.699C713.916 690.238 714.041 689.794 714.15 689.366C714.525 687.885 714.815 686.159 714.576 684.544L713.774 690.699ZM682.577 683.362L691.988 687.125C682.597 699.841 673.206 712.56 663.814 725.292L658.115 733.017L658.001 733.066L657.244 734.092C652.573 740.415 647.906 746.738 643.239 753.06C635.125 764.052 627.014 775.04 618.895 786.023L620.091 787.129C619.162 788.041 618.233 788.953 617.304 789.865C615.468 791.667 613.632 793.47 611.796 795.273C619.224 780.494 626.653 765.718 634.081 750.942L634.145 750.816C643.027 733.148 651.909 715.481 660.792 697.809L660.842 697.709L660.887 697.608C661.386 696.485 661.613 695.054 661.144 693.55C660.704 692.139 659.812 691.187 659.073 690.599C658.203 689.907 657.171 689.423 656.159 689.067C656.259 688.84 656.366 688.6 656.481 688.346L656.483 688.342C656.931 687.35 657.294 686.649 657.57 686.187C657.982 686.103 658.581 686.016 659.401 685.946L659.441 685.943L659.481 685.939C667.199 685.147 674.895 684.287 682.577 683.362ZM673.417 730.889C673.614 730.814 673.815 730.737 674.025 730.657C673.878 730.812 673.73 730.969 673.58 731.127C673.528 731.045 673.474 730.966 673.417 730.889ZM657.857 685.751C657.857 685.75 657.858 685.749 657.859 685.749C657.868 685.737 657.867 685.739 657.857 685.751Z" stroke="#FF5C00" stroke-width="9.3735"/>
<path d="M148.64 165.724C148.64 165.724 148.634 165.726 148.623 165.731C148.623 165.731 148.624 165.731 148.625 165.73C148.635 165.726 148.64 165.724 148.64 165.724ZM151.917 159.59C151.816 159.341 151.697 159.105 151.56 158.881C151.945 158.499 152.33 158.119 152.715 157.739C152.719 157.735 152.723 157.731 152.726 157.728L152.864 157.594C155.312 155.213 159.725 150.92 166.519 145.359C188.183 129.105 210.509 116.052 234.902 107.267L232.705 111.957C201.42 178.733 190.395 247.26 193.138 320.436L193.31 325.031L197.907 324.946C203.324 324.846 205.979 324.879 211.398 325.062L211.401 325.062C221.487 325.398 230.07 323.683 235.815 317.715L235.821 317.709C238.751 314.652 240.634 310.492 241.847 305.7C243.064 300.892 243.687 295.118 243.863 288.478C246.298 233.79 254.93 181.617 272.342 129.833C274.975 122.527 274.69 115.248 269.036 110.223C263.593 105.384 254.976 105.049 245.159 107.186L245.153 107.188C242.373 107.797 240.62 108.203 238.393 108.762L236.374 106.743C247.563 102.806 259.19 99.7656 271.388 97.7236C297.602 93.5897 325.253 102.093 339.144 124.554L339.145 124.554C358.406 155.687 355.603 198.717 350.32 234.409C347.923 250.593 344.551 269.018 338.11 285.746C331.667 302.48 322.317 317.077 308.245 326.115L308.243 326.116C297.336 333.126 283.969 336.032 269.701 336.694C255.436 337.356 240.672 335.763 227.151 334.091L227.012 334.074L226.873 334.065C178.967 331.015 136.679 337.524 91.2429 352.243L91.1705 352.266L91.0989 352.292C89.4577 352.883 88.2077 353.226 87.2969 353.387C87.1812 353.407 87.0759 353.424 86.9805 353.437C86.9787 353.431 86.977 353.426 86.9752 353.42C86.8656 353.056 86.7561 352.573 86.6643 351.952C86.4024 350.15 86.2792 348.763 86.2538 347.756C86.242 347.287 86.2534 346.962 86.2673 346.753C86.4166 346.584 86.6373 346.355 86.9496 346.062C87.8448 345.221 89.2284 344.101 91.1798 342.697C95.7746 339.465 99.482 336.214 102.038 332.86C104.6 329.499 106.204 325.762 106.04 321.71C105.588 263.38 119.622 213.24 151.372 164.395L151.468 164.248L151.552 164.093C151.725 163.778 152.124 163.013 152.241 162.006C152.304 161.46 152.316 160.573 151.917 159.59ZM86.0415 347.033C86.0411 347.033 86.0465 347.024 86.0591 347.006C86.0483 347.024 86.042 347.033 86.0415 347.033Z" stroke="#FF5C00" stroke-width="9.3735"/>
<path d="M403.468 123.892L403.576 123.485C404.325 120.686 404.736 119.167 405.432 116.707C405.991 116.858 406.737 117.135 407.686 117.6C445.291 138.128 471.756 164.881 502.007 195.96L502.012 195.964C505.454 199.491 507.359 201.775 508.088 202.916C508.415 203.428 508.813 204.497 508.793 206.577C507.097 205.273 505.489 204.179 503.981 203.333C502.135 202.298 500.102 201.44 498.036 201.26C495.75 201.062 493.287 201.715 491.5 203.797C489.944 205.612 489.446 207.905 489.304 209.85C489.304 209.85 489.304 209.851 489.304 209.851C489.304 209.853 489.304 209.854 489.304 209.856L488.932 214.927C484.613 273.733 480.298 332.499 475.472 391.231C475.169 394.81 476.654 398.091 478.837 400.873C481.026 403.662 484.202 406.331 488.12 408.892L488.127 408.897C490.455 410.413 492.222 411.646 493.483 412.633C494.787 413.653 495.199 414.145 495.237 414.19C495.239 414.193 495.24 414.194 495.24 414.194C495.343 414.354 495.723 415.174 495.527 417.398L495.527 417.4C495.426 418.546 495.347 419.406 495.267 420.276C495.187 421.145 495.106 422.022 495.004 423.187C494.997 423.256 494.991 423.324 494.984 423.39C493.963 423.148 492.69 422.805 491.156 422.348C470.879 416.024 450.87 408.851 430.794 401.563C428.685 400.797 426.574 400.03 424.463 399.262C406.498 392.731 388.452 386.171 370.207 380.16L370.193 380.155L370.179 380.151C368.132 379.491 367.089 378.858 366.64 378.459C366.623 378.444 366.608 378.43 366.594 378.417C366.784 374.428 367.045 371.32 367.354 369.06C367.511 367.918 367.67 367.06 367.82 366.449C368.711 366.313 370.209 366.296 372.444 366.587L372.455 366.588C377.223 367.196 381.633 367.203 385.108 365.923C386.936 365.25 388.653 364.167 389.944 362.506C391.242 360.835 391.868 358.892 392.014 356.906C397.376 289.3 405.548 222.367 418.861 155.962C419.879 151.139 419.907 146.618 418.535 142.616L418.531 142.605L418.527 142.594C417.046 138.343 413.208 134.156 408.254 130.178C406.533 128.793 405.243 127.675 404.341 126.8C403.679 126.158 403.371 125.784 403.257 125.639C403.253 125.593 403.25 125.53 403.25 125.449C403.25 125.121 403.301 124.612 403.468 123.892ZM512.652 209.429C512.653 209.429 512.649 209.428 512.642 209.425C512.648 209.427 512.651 209.429 512.652 209.429ZM367.209 366.594C367.208 366.593 367.222 366.586 367.257 366.573C367.227 366.588 367.21 366.595 367.209 366.594Z" stroke="#FF5C00" stroke-width="9.3735"/>
<path d="M664.457 317.797L655.327 318.159C642.358 270.343 627.54 223.284 607.789 177.996C606.958 176.31 606.354 174.575 606.051 172.802L606.05 172.794C604.795 165.382 608.194 157.953 614.427 150.994L614.433 150.987L614.439 150.981C615.554 149.745 616.273 148.754 616.675 148.034C616.819 147.779 616.896 147.603 616.937 147.499C616.667 144.619 616.281 142.327 615.961 140.75C615.795 139.932 615.647 139.308 615.542 138.895C615.449 138.526 615.39 138.325 615.375 138.271L615.372 138.26L615.333 138.126L615.303 137.989C615.272 137.849 615.24 137.717 615.209 137.593C601.823 147.446 590.038 159.965 577.905 172.853C576.431 174.419 574.953 175.99 573.465 177.562C559.589 192.229 545.009 206.951 527.394 217.032L525.136 218.324C525.111 218.448 525.083 218.572 525.052 218.696L525.046 218.719L525.04 218.742C525.018 218.825 525.005 218.89 524.997 218.941C524.989 218.992 524.989 219.015 524.989 219.012C524.989 220.166 525.195 220.664 525.283 220.82C525.676 221.519 527.067 223.47 529.819 226.944C530.757 228.122 531.283 228.306 531.313 228.317C531.336 228.325 531.341 228.325 531.36 228.325C531.393 228.326 531.486 228.322 531.69 228.279C531.874 228.24 532.018 228.2 532.262 228.133C532.363 228.105 532.481 228.073 532.627 228.034L532.635 228.032C532.994 227.935 533.747 227.732 534.582 227.685C535.521 227.633 536.868 227.755 538.19 228.608C539.426 229.404 540.13 230.51 540.54 231.445C570.475 295.035 587.129 365.138 601.154 433.046L601.159 433.073L601.165 433.101C601.968 437.244 602.676 440.475 603.299 442.832C603.611 444.012 603.887 444.913 604.123 445.569C604.349 446.196 604.479 446.425 604.476 446.426C604.476 446.426 604.473 446.422 604.467 446.413L604.474 446.423C604.654 446.694 604.941 447.009 605.928 447.099L605.945 447.101L605.962 447.103C622.896 448.777 640.148 449.665 657.161 449.715L657.171 449.715C657.795 449.719 658.274 449.684 658.629 449.632C660.601 443.616 661.672 440.264 663.68 433.839C692.098 338.698 710.21 241.588 711.642 142.34C711.65 138.115 711.727 134.599 711.909 131.828C712.081 129.218 712.371 126.765 713.021 124.984C713.699 123.106 714.951 121.34 716.374 119.74C717.843 118.089 719.718 116.367 721.93 114.595L722.057 114.494L722.19 114.402C722.326 114.308 722.432 114.225 722.515 114.156C722.423 113.652 722.234 112.793 721.889 111.501C721.409 109.708 720.694 107.321 719.715 104.343L719.712 104.336C718.894 101.83 718.175 99.9045 717.574 98.5157C717.206 97.6682 716.933 97.1411 716.764 96.8429C716.47 96.819 715.978 96.8203 715.235 96.9264L664.457 317.797ZM664.457 317.797C675.172 260.695 682.03 203.631 683.643 145.465L683.644 145.428M664.457 317.797L683.644 145.428M683.644 145.428L683.644 145.391M683.644 145.428L683.644 145.391M683.644 145.391C683.666 143.585 683.474 141.757 683.05 139.932C682.116 135.914 679.637 132.777 676.031 130.756C672.576 128.819 668.252 127.985 663.443 127.961C661.199 127.911 659.742 127.732 658.861 127.52C658.827 127.266 658.8 127.004 658.781 126.733L658.751 126.321M683.644 145.391L658.751 126.321M658.751 126.321L658.649 125.921M658.751 126.321L658.649 125.921M658.649 125.921C658.502 125.34 658.396 124.908 658.286 124.461L658.285 124.456C658.176 124.01 658.063 123.549 657.907 122.935C657.22 120.197 656.755 118.05 656.495 116.431C656.365 115.623 656.296 115.003 656.269 114.544C656.26 114.39 656.257 114.268 656.257 114.175C656.264 114.168 656.271 114.161 656.279 114.154C656.575 113.878 657.216 113.428 658.413 112.917L658.421 112.914M658.649 125.921L658.421 112.914M658.421 112.914L658.428 112.911M658.421 112.914L658.428 112.911M658.428 112.911C676.544 105.102 695.69 99.7234 715.234 96.9266L658.428 112.911ZM614.63 136.028C614.63 136.028 614.633 136.031 614.637 136.037C614.632 136.031 614.63 136.028 614.63 136.028ZM658.148 127.29C658.148 127.289 658.157 127.293 658.173 127.302C658.155 127.294 658.147 127.29 658.148 127.29Z" stroke="#FF5C00" stroke-width="9.3735"/>
<path d="M848.075 124.873L843.124 126.524L845.296 131.27C860.667 164.856 871.393 198.312 878.997 234.456L879.704 237.82L883.126 238.155C889.967 238.826 893.319 239.208 900.026 240.127L900.038 240.129C902.541 240.466 904.845 240.607 906.882 240.471C908.871 240.338 910.955 239.921 912.75 238.857L912.758 238.852L912.767 238.847C914.943 237.546 916.19 235.451 916.872 233.385C917.554 231.32 917.798 228.937 917.75 226.407C917.682 222.45 917.647 219.483 917.708 217.355C917.714 217.152 917.721 216.961 917.728 216.781C923.543 218.519 928.039 220.08 931.287 221.344C934.786 222.706 936.533 223.608 936.989 223.914C937.504 224.261 938.87 225.836 940.392 230.147C945.779 247.544 950.571 264.271 952.743 282.023L952.745 282.044L952.748 282.064C952.848 282.827 952.863 283.38 952.845 283.762C952.326 283.825 951.63 283.877 950.73 283.908C948.438 283.985 945.221 283.91 940.987 283.684L940.977 283.683C938.345 283.548 936.286 283.28 934.741 282.915C933.145 282.539 932.404 282.129 932.137 281.922L932.129 281.917L932.122 281.911C932.123 281.912 932.066 281.867 931.953 281.744C931.841 281.621 931.694 281.443 931.515 281.192C931.15 280.683 930.717 279.969 930.214 279.004C929.202 277.064 928.06 274.402 926.729 270.949L926.727 270.946C925.418 267.557 924.08 264.674 922.757 262.364C921.483 260.139 920.042 258.121 918.417 256.776C915.479 254.345 911.627 253.149 907.391 252.778L907.383 252.777L907.374 252.777C899.477 252.113 895.489 251.856 887.47 251.448L881.974 251.169L882.573 256.64C887.583 302.362 886.98 345.768 880.764 391.344L879.839 398.127L886.497 396.536L886.519 396.53C891.877 395.25 894.564 394.608 899.914 393.325L899.923 393.323C908.646 391.214 915.606 387.815 920.165 382.796L920.166 382.795C924.303 378.238 931.308 366.933 939.624 350.62L939.631 350.608C943.054 343.844 945.792 340.271 947.912 338.75C949.925 337.306 954.099 335.969 961.301 335.443L961.308 335.443C966.239 335.075 969.237 335.394 970.779 335.927C970.881 335.962 970.969 335.996 971.045 336.027C970.915 336.718 970.601 337.888 969.956 339.649L969.943 339.683L969.932 339.717C965.025 353.787 962.03 361.02 955.027 375.947L955.023 375.956C951.801 382.861 949.571 386.527 948.634 387.584C948.521 387.711 947.94 388.223 946.372 388.98C944.89 389.696 942.844 390.483 940.164 391.323C884.417 408.719 828.756 424.569 771.536 435.466C770.044 435.73 768.98 435.799 768.268 435.776C768.233 435.358 768.208 434.834 768.201 434.188C768.178 432.028 768.361 428.973 768.769 424.936L768.769 424.935C769.078 421.859 771.127 418.595 776.833 415.705L776.837 415.703C786.921 410.584 794.538 404.062 795.202 395.411L795.204 395.379L795.206 395.347C801.064 302.554 793.207 212.085 766.844 122.572L766.792 122.395L766.726 122.222C765.614 119.315 762.925 117.367 760.42 116.024C757.707 114.569 754.162 113.279 749.934 112.14L749.933 112.14C747.262 111.421 745.24 110.762 743.783 110.152C743.059 109.849 742.539 109.585 742.18 109.369C741.88 109.189 741.76 109.082 741.746 109.069C741.74 109.062 741.73 109.051 741.716 109.034C741.692 109.003 741.657 108.958 741.614 108.896C741.526 108.772 741.413 108.597 741.276 108.362C741 107.887 740.672 107.242 740.295 106.398C739.537 104.704 738.67 102.418 737.677 99.4961L737.675 99.4913C737.028 97.5943 736.588 96.106 736.319 94.9809C737.147 94.8661 738.22 94.7736 739.566 94.7274C793.502 95.1921 839.043 109.715 883.31 140.427C886.384 142.769 888.845 144.896 890.757 146.664L890.764 146.671L890.771 146.677C892.662 148.412 895.046 150.854 897.907 154.028C907.333 164.738 916.633 175.41 925.525 186.4C921.797 184.37 919.064 182.761 917.243 181.384C914.399 179.233 910.524 175.172 905.391 168.814C896.029 157.209 888.337 148.561 882.804 143.099C877.31 137.674 872.053 133.526 867.06 131.307C860.821 128.523 857.595 127.232 851.218 124.901L849.68 124.339L848.126 124.856L848.075 124.873ZM767.4 435.668C767.4 435.668 767.409 435.671 767.425 435.677C767.407 435.672 767.399 435.669 767.4 435.668ZM736.002 93.1039C736.002 93.0528 736.006 93.0609 736.002 93.1161C736.002 93.1117 736.002 93.1076 736.002 93.1039Z" stroke="#FF5C00" stroke-width="9.3735"/>
<path d="M95.3437 385.02C95.6313 384.575 96.4229 383.792 98.4484 383.069C137.943 370.272 175.165 363.872 216.617 364.461C218.655 364.571 220.205 364.795 221.324 365.067C221.887 365.204 222.297 365.343 222.581 365.463C222.687 365.507 222.767 365.545 222.826 365.576C222.906 365.711 223.088 366.045 223.323 366.704C223.749 367.897 224.176 369.651 224.588 372.079C225.237 375.923 225.693 378.899 225.93 381.102C226.049 382.204 226.103 383.03 226.11 383.628C226.11 383.636 226.11 383.644 226.11 383.652C225.831 383.72 225.453 383.784 224.957 383.829L224.917 383.832L224.877 383.837C219.208 384.442 214.182 386.576 211.338 391.048C208.51 395.493 208.654 400.975 210.402 406.433L210.432 406.526L210.466 406.618C225.032 446.297 247.713 483.367 272.614 518.848C285.069 536.595 298.116 553.996 311.007 571.14C311.596 571.923 312.185 572.706 312.773 573.488C325.074 589.845 337.198 605.968 348.577 622.032C352.344 627.369 357.759 630.934 364.232 633.04L364.247 633.045L364.262 633.05C367.792 634.172 369.531 635.146 370.161 635.682C371.004 636.4 372.395 638.046 374.406 641.055L374.407 641.055C375.297 642.387 375.967 643.383 376.635 644.376L376.635 644.377C377.302 645.369 377.967 646.357 378.85 647.678L378.852 647.681C379.084 648.028 379.301 648.356 379.504 648.666C360.282 652.82 341.468 658.506 323.013 664.887L323.013 664.887C323.012 664.887 323.011 664.888 323.009 664.888C322.978 664.901 322.944 664.915 322.774 664.853C322.485 664.747 321.88 664.418 320.988 663.508C317.093 659.503 314.031 656.287 311.79 653.843C309.531 651.379 308.297 649.904 307.831 649.235C307.845 649.219 307.86 649.202 307.876 649.184C310.142 646.669 311.359 643.504 310.864 639.942C310.403 636.623 308.538 633.585 306.046 630.85L306.044 630.849C291.201 614.573 275.353 598.294 259.356 581.862L259.166 581.668C243.086 565.15 226.852 548.471 211.218 531.374C179.962 497.192 151.301 461.547 131.389 422.716C128.712 416.812 125.851 411.887 122.433 408.681L122.428 408.675L122.422 408.67C118.485 405.001 112.662 403.48 106.226 403.242C104.146 403.163 102.559 402.996 101.426 402.782C100.673 402.639 100.285 402.506 100.139 402.452C100.057 402.353 99.8951 402.137 99.6745 401.738C99.3833 401.212 99.058 400.491 98.72 399.545L98.3828 398.444C96.9992 393.926 96.3626 391.706 95.2201 387.169C94.9041 385.908 95.1355 385.342 95.3437 385.02ZM383.297 647.788C383.31 647.782 383.311 647.782 383.3 647.787C383.299 647.788 383.298 647.788 383.297 647.788Z" stroke="#FF5C00" stroke-width="9.3735"/>
<path d="M337.638 507.085L345.021 501.447L345.038 501.464L345.101 501.527L345.162 501.593C352.87 509.899 360.623 518.17 368.378 526.445C404.626 565.119 440.936 603.86 473.135 646.507C477.439 647.399 480.736 648.247 484.306 649.184C480.517 637.4 476.56 625.558 472.584 613.654C456.065 564.208 439.195 513.712 432.465 462.035L432.455 461.961L432.448 461.887C432.131 458.658 432.644 454.769 435.881 452.331C437.662 450.989 439.998 450.604 441.819 450.451C443.854 450.281 446.325 450.336 449.154 450.57C449.319 450.578 449.472 450.583 449.615 450.586C449.671 449.631 449.68 448.336 449.627 446.648C449.407 439.908 447.733 437.753 446.585 437.105C424.452 428.803 402.194 421.015 379.743 413.576C379.566 413.519 379.398 413.466 379.238 413.417C379.253 413.745 379.276 414.107 379.308 414.505C379.78 420.243 380.851 423.447 381.792 424.874C382.81 426.417 385.309 428.689 390.002 431.614C398.568 436.734 404.311 442.988 405.449 450.553C410.843 480.615 419.964 506.902 431.348 535.538L423.464 540.354C421.321 537.903 419.18 535.458 417.043 533.017C377.609 487.982 339.527 444.491 310.641 390.457C290.073 380.31 270.253 372.208 247.911 368.103L337.638 507.085ZM337.638 507.085L369.036 562.153L400.431 617.214L337.638 507.085ZM428.59 647.31C428.569 647.258 428.507 647.105 428.376 646.819C428.139 646.303 427.777 645.564 427.274 644.579C426.983 644.012 426.652 643.375 426.28 642.669L428.59 647.31ZM428.59 647.31C416.864 647.51 410.491 648.146 398.289 649.989C396.684 650.225 395.13 649.532 393.609 647.86C392.089 646.187 389.115 641.93 384.706 635.105C382.678 631.979 382.425 629.631 383.996 628.178L428.59 647.31ZM429.141 643.948C429.472 643.464 429.844 643.143 430.149 642.936L428.593 647.31C428.578 647.261 428.54 647.131 428.505 646.95C428.34 646.088 428.451 644.96 429.141 643.948Z" stroke="#FF5C00" stroke-width="9.3735"/>
<path d="M535.388 471.803L536.449 473.395L536.483 473.445L537.301 474.675L537.267 476.152C536.135 525.034 539.462 573.431 542.825 622.35C543.258 628.655 543.692 634.969 544.117 641.294L535.388 471.803ZM535.388 471.803L533.517 471.407M535.388 471.803L533.517 471.407M533.517 471.407C529.062 470.466 526.843 469.982 522.398 468.959L522.391 468.957M533.517 471.407L522.391 468.957M522.391 468.957L522.384 468.955M522.391 468.957L522.384 468.955M522.384 468.955C517.24 467.789 512.436 469.06 508.874 473.063M522.384 468.955L508.874 473.063M488.735 502.551L488.74 502.552C492.035 503.437 494.626 503.943 496.559 504.144C497.522 504.245 498.251 504.262 498.779 504.233C499.037 504.219 499.215 504.195 499.327 504.176C499.408 504.073 499.544 503.877 499.715 503.531C500.182 502.589 500.68 501.001 501.074 498.535L488.735 502.551ZM488.735 502.551C482.144 500.789 478.717 499.238 477.524 498.304L477.517 498.298M488.735 502.551L477.517 498.298M477.517 498.298L477.509 498.292M477.517 498.298L477.509 498.292M477.509 498.292C476.649 497.624 475.918 496.549 475.676 494.409C475.489 492.726 475.382 491.079 475.367 489.431L475.367 489.408M477.509 498.292L475.367 489.408M665.321 528.129C671.538 527.977 675.492 527.115 677.147 525.628L665.321 528.129ZM665.321 528.129C657.381 528.332 652.414 527.875 650.403 526.997L665.321 528.129ZM475.367 489.408L475.366 489.385M475.367 489.408L475.366 489.385M475.366 489.385C475.099 475.429 475.264 468 476.17 452.616L476.171 452.6M475.366 489.385L476.171 452.6M476.171 452.6L476.172 452.583M476.171 452.6L476.172 452.583M476.172 452.583C476.276 450.575 476.566 449.352 476.84 448.694C476.845 448.681 476.85 448.669 476.856 448.656C476.856 448.656 476.857 448.656 476.857 448.656C477.393 448.659 478.188 448.729 479.294 448.911C481.506 449.275 484.535 450.016 488.456 451.162L488.494 451.173M476.172 452.583L488.494 451.173M488.494 451.173L488.532 451.184M488.494 451.173L488.532 451.184M488.532 451.184C550.108 468.065 611.228 476.693 675.158 476.642L675.199 476.642M488.532 451.184L675.199 476.642M675.199 476.642L675.241 476.641M675.199 476.642L675.241 476.641M675.241 476.641C677.89 476.591 679.853 476.645 681.206 476.781C681.25 476.785 681.292 476.79 681.334 476.794C681.426 477.877 681.429 479.459 681.275 481.602L681.274 481.609M675.241 476.641L681.274 481.609M681.274 481.609L681.274 481.617M681.274 481.609L681.274 481.617M681.274 481.617C680.403 494.228 679.774 500.277 677.991 511.742L681.274 481.617ZM674.025 522.133L674.034 522.126C674.949 521.312 675.853 520.002 676.534 517.871C677.19 515.81 677.674 513.762 677.991 511.742L674.025 522.133ZM674.025 522.133L674.016 522.141M674.025 522.133L674.016 522.141M674.016 522.141C674.034 522.125 674.033 522.126 674.008 522.14C673.9 522.199 673.357 522.499 671.968 522.795C670.383 523.133 668.155 523.371 665.207 523.444L665.202 523.444M674.016 522.141L665.202 523.444M665.202 523.444C661.329 523.543 658.278 523.478 656.012 523.296C654.879 523.206 653.993 523.09 653.327 522.966C653.022 522.909 652.783 522.854 652.601 522.804C652.568 522.735 652.529 522.645 652.485 522.528C652.188 521.742 651.903 520.358 651.771 518.121L651.771 518.12M665.202 523.444L651.771 518.12M651.771 518.12C651.272 509.72 649.615 502.123 647.322 496.034C644.776 489.272 639.981 484.519 632.903 484.185L632.893 484.184M651.771 518.12L632.893 484.184M632.893 484.184C629.929 484.05 628.447 483.967 625.461 483.798L621.242 483.56M632.893 484.184L621.242 483.56M621.242 483.56L620.57 487.732M621.242 483.56L620.57 487.732M620.57 487.732C614.117 527.796 605.198 567.416 596.249 607.166M620.57 487.732L596.249 607.166M534.892 652.664C536.24 652.388 537.494 652.039 538.592 651.599C539.7 651.154 541.132 650.428 542.199 649.174C543.262 647.926 543.735 646.464 543.957 645.242C544.185 643.987 544.209 642.643 544.117 641.294L534.892 652.664ZM534.892 652.664C534.876 652.764 534.861 652.887 534.849 653.035C534.812 653.524 534.824 654.201 534.935 655.1L534.892 652.664ZM508.874 473.063C506.943 475.234 505.538 478.874 504.405 482.777M508.874 473.063L504.405 482.777M504.405 482.777C503.198 486.936 502.072 492.264 501.075 498.533L504.405 482.777ZM596.249 607.166C593.546 619.173 590.84 631.192 588.199 643.239L596.249 607.166ZM499.239 504.271C499.239 504.27 499.243 504.267 499.252 504.26C499.244 504.268 499.24 504.271 499.239 504.271ZM477.029 448.326C477.029 448.326 477.026 448.33 477.02 448.337C477.025 448.329 477.028 448.326 477.029 448.326ZM682.638 477.019C682.637 477.019 682.624 477.015 682.6 477.006C682.626 477.014 682.638 477.019 682.638 477.019ZM652.698 522.982C652.706 522.991 652.709 522.996 652.709 522.997C652.709 522.997 652.705 522.993 652.698 522.982ZM588.199 643.241C587.567 646.12 587.712 649.09 589.13 651.777C590.535 654.438 592.879 656.236 595.54 657.389C595.599 657.415 595.655 657.441 595.708 657.466C595.596 658.144 595.384 659.075 595.04 660.306C594.523 662.121 594.069 663.392 593.698 664.212C593.675 664.263 593.654 664.31 593.632 664.355C593.132 664.421 592.395 664.461 591.373 664.43C573.035 663.557 555.266 662.065 537.025 659.887C536.441 659.803 536.033 659.703 535.764 659.617C535.723 659.483 535.677 659.321 535.627 659.125C535.397 658.219 535.16 656.899 534.935 655.101L588.199 643.241ZM535.41 659.476C535.41 659.476 535.413 659.478 535.418 659.481C535.412 659.478 535.41 659.476 535.41 659.476ZM535.93 660.075C535.93 660.076 535.927 660.071 535.922 660.06C535.927 660.07 535.93 660.075 535.93 660.075ZM593.325 664.921C593.325 664.921 593.33 664.914 593.341 664.9C593.331 664.915 593.326 664.921 593.325 664.921Z" stroke="#FF5C00" stroke-width="9.3735"/>
<path d="M853.302 478.806L853.198 478.91C828.532 523.308 793.41 563.079 759.395 601.597C748.136 614.346 736.998 626.958 726.401 639.555L853.302 478.806ZM853.302 478.806L853.646 478.103M853.302 478.806L853.646 478.103M853.646 478.103C855.393 474.533 856.576 471.19 856.973 468.174C857.37 465.165 857.04 461.956 855.071 459.336C853.068 456.671 850.061 455.529 847.077 455.217C844.13 454.909 840.753 455.343 837.136 456.261C830.721 457.88 824.707 461.139 819.057 465.783C813.446 470.396 809.396 475.406 807 480.901C786.085 523.443 755.785 561.599 725.608 599.599C716.068 611.613 706.539 623.611 697.324 635.728C695.307 638.376 693.711 640.812 692.617 643.013C691.569 645.122 690.744 647.476 690.846 649.819C690.935 651.895 691.688 654.383 694.034 655.99C696.153 657.442 698.615 657.484 700.509 657.238L700.518 657.236M853.646 478.103L700.518 657.236M700.518 657.236C704.877 656.66 709.413 654.268 714.12 650.835L714.126 650.83M700.518 657.236L714.126 650.83M714.126 650.83C718.851 647.372 723.009 643.591 726.399 639.557L714.126 650.83ZM846.054 446.371L846.054 446.367C864.036 441.479 884.517 438.059 900.224 445.126L900.224 445.126C910.903 449.93 916.794 460.763 912.851 474.348L912.851 474.349C909.551 485.721 901.845 496.793 892.395 507.467C885.715 515.012 878.448 522.062 871.529 528.776C868.63 531.587 865.793 534.34 863.086 537.045L863.084 537.046C831.935 568.195 797.578 597.979 761.69 623.745C760.855 624.345 760.017 624.947 759.178 625.55C737.028 641.466 713.429 658.425 687.691 661.779L687.691 661.779C679.472 662.852 674.542 661.302 671.443 658.561C668.226 655.716 666.001 650.739 665.112 642.873L665.112 642.873C662.577 620.453 670.035 599.472 679.274 578.469C692.459 548.544 719.035 523.294 744.172 500.952L741.204 497.612L744.172 500.952C772.932 475.389 808.652 456.548 846.054 446.371Z" stroke="#FF5C00" stroke-width="9.3735"/>
</g>
<defs>
<clipPath id="clip0_83_2">
<rect width="894.188" height="855.585" fill="white" transform="translate(81.5713 90.0732)"/>
</clipPath>
</defs>
</svg>
